<svg xmlns="http://www.w3.org/2000/svg" viewBox="0 0 512 512" role="img" aria-label="AlwaysFreeAAC logo">
  <defs>
    <linearGradient id="bg" x1="64" y1="64" x2="448" y2="448" gradientUnits="userSpaceOnUse">
      <stop offset="0" stop-color="#0066ff"/>
      <stop offset="1" stop-color="#00a6f4"/>
    </linearGradient>
  </defs>
  <rect width="512" height="512" rx="112" fill="url(#bg)"/>
  <g fill="#fff">
    <path d="M128 152c0-26.5 21.5-48 48-48h196c26.5 0 48 21.5 48 48v120c0 26.5-21.5 48-48 48H250l-74 58c-15 11.8-36-0.1-36-19.2V320h-12c-26.5 0-48-21.5-48-48V152Z"/>
    <circle cx="206" cy="212" r="20"/>
    <circle cx="274" cy="212" r="20"/>
    <circle cx="342" cy="212" r="20"/>
  </g>
  <circle cx="388" cy="136" r="38" fill="#ffd84d"/>
  <path fill="#fff" d="m388 112 8.5 16.7 18.5 2.7-13.4 13.1 3.2 18.5-16.6-8.7-16.6 8.7 3.2-18.5-13.4-13.1 18.5-2.7z"/>
</svg>
