<svg xmlns="http://www.w3.org/2000/svg" viewBox="0 0 512 512">
  <rect width="512" height="512" rx="112" fill="#005fcc" />
  <path fill="#ffffff" d="M136 128h240c30.9 0 56 25.1 56 56v112c0 30.9-25.1 56-56 56H272l-88 69c-16.3 12.3-40-0.3-40-21.4V352h-8c-30.9 0-56-25.1-56-56V184c0-30.9 25.1-56 56-56z" />
  <path fill="#005fcc" d="M192 224h128c8.8 0 16-7.2 16-16s-7.2-16-16-16H192c-8.8 0-16 7.2-16 16s7.2 16 16 16m0 56h80c8.8 0 16-7.2 16-16s-7.2-16-16-16h-80c-8.8 0-16 7.2-16 16s7.2 16 16 16" />
</svg>
